<svg width="50" height="48" viewBox="0 0 50 48" fill="none" xmlns="http://www.w3.org/2000/svg">
<g clip-path="url(#clip0)">
<path d="M14.0625 27C21.8166 27 28.125 20.9439 28.125 13.5C28.125 6.05606 21.8166 0 14.0625 0C6.3084 0 0 6.05606 0 13.5C0 20.9439 6.3084 27 14.0625 27ZM14.0625 1.875C20.7396 1.875 26.1719 7.08994 26.1719 13.5C26.1719 19.9101 20.7396 25.125 14.0625 25.125C7.38535 25.125 1.95312 19.9101 1.95312 13.5C1.95312 7.08994 7.38535 1.875 14.0625 1.875Z" fill="#555555"/>
<path d="M11.0201 19.6392C11.1575 19.7033 11.3028 19.7336 11.446 19.7336C11.8082 19.7336 12.1562 19.5393 12.3252 19.2054L17.6986 8.583C17.9343 8.11725 17.7319 7.55635 17.2468 7.33013C16.7615 7.10391 16.1773 7.29816 15.9417 7.76391L10.5682 18.3863C10.3326 18.8521 10.5349 19.413 11.0201 19.6392V19.6392Z" fill="#555555"/>
<path d="M9.38404 11.9258C11.1075 11.9258 12.5095 10.5799 12.5095 8.92537C12.5095 7.27087 11.1075 5.9249 9.38404 5.9249C7.66061 5.9249 6.25846 7.27077 6.25846 8.92527C6.25846 10.5798 7.66061 11.9258 9.38404 11.9258V11.9258ZM9.38404 7.7998C10.0305 7.7998 10.5564 8.30474 10.5564 8.92527C10.5564 9.5458 10.0304 10.0507 9.38404 10.0507C8.73766 10.0507 8.21168 9.5458 8.21168 8.92527C8.21168 8.30474 8.73756 7.7998 9.38404 7.7998Z" fill="#555555"/>
<path d="M15.7891 18.0747C15.7891 19.7292 17.1912 21.0752 18.9146 21.0752C20.6381 21.0752 22.0401 19.7292 22.0401 18.0747C22.0401 16.4202 20.6381 15.0742 18.9146 15.0742C17.1912 15.0742 15.7891 16.4202 15.7891 18.0747ZM18.9146 16.9492C19.5611 16.9492 20.087 17.4542 20.087 18.0747C20.087 18.6952 19.561 19.2002 18.9146 19.2002C18.2682 19.2002 17.7423 18.6952 17.7423 18.0747C17.7423 17.4542 18.2681 16.9492 18.9146 16.9492Z" fill="#555555"/>
<path d="M49.0234 46.125H46.0938V35.8191C46.0938 35.3013 45.6565 34.8816 45.1172 34.8816C44.5778 34.8816 44.1406 35.3013 44.1406 35.8191V46.125H35.9375V19.1179C35.9375 18.6001 35.5003 18.1804 34.9609 18.1804H33.4123L40.0391 11.8187L46.6658 18.1804H45.1172C44.5778 18.1804 44.1406 18.6001 44.1406 19.1179V27.3816C44.1406 27.8993 44.5778 28.3191 45.1172 28.3191C45.6565 28.3191 46.0938 27.8993 46.0938 27.3816V20.0554H49.0234C49.4184 20.0554 49.7745 19.8269 49.9257 19.4766C50.0769 19.1264 49.9933 18.7231 49.7141 18.455L40.7297 9.82996C40.3483 9.46387 39.73 9.46387 39.3485 9.82996L30.3642 18.455C30.0849 18.7231 30.0014 19.1263 30.1525 19.4766C30.3037 19.827 30.6598 20.0554 31.0548 20.0554H33.9845V46.125H31.0548V29.7656C31.0548 29.2478 30.6176 28.8281 30.0782 28.8281H19.9219C19.3825 28.8281 18.9453 29.2478 18.9453 29.7656V46.125H16.0156V36C16.0156 35.4822 15.5784 35.0625 15.0391 35.0625H4.88281C4.34346 35.0625 3.90625 35.4822 3.90625 36V46.125H0.976562C0.437207 46.125 0 46.5447 0 47.0625C0 47.5803 0.437207 48 0.976562 48H49.0234C49.5628 48 50 47.5803 50 47.0625C50 46.5447 49.5628 46.125 49.0234 46.125ZM5.85938 46.125V36.9375H14.0625V46.125H5.85938ZM20.8984 46.125V30.7031H29.1016V46.125H20.8984Z" fill="#555555"/>
<path d="M45.1201 30.6628C44.8633 30.6628 44.6113 30.7631 44.4297 30.9375C44.248 31.1119 44.1435 31.3537 44.1435 31.6003C44.1435 31.8469 44.248 32.0887 44.4297 32.2631C44.6113 32.4375 44.8633 32.5378 45.1201 32.5378C45.3769 32.5378 45.6289 32.4375 45.8105 32.2631C45.9922 32.0887 46.0967 31.8469 46.0967 31.6003C46.0967 31.3537 45.9922 31.1119 45.8105 30.9375C45.6289 30.7631 45.3769 30.6628 45.1201 30.6628Z" fill="#555555"/>
</g>
<defs>
<clipPath id="clip0">
<rect width="50" height="48" fill="white"/>
</clipPath>
</defs>
</svg>
