<svg width="50" height="50" viewBox="0 0 50 50" fill="none" xmlns="http://www.w3.org/2000/svg">
<path d="M21.875 6.25H11.4583V8.3333H21.875V6.25Z" fill="#555555"/>
<path d="M13.5416 10.4167H11.4583V12.5H13.5416V10.4167Z" fill="#555555"/>
<path d="M17.7083 10.4167H15.625V12.5H17.7083V10.4167Z" fill="#555555"/>
<path d="M44.4864 8.63857L36.1531 0.305176C35.9578 0.109863 35.6929 0 35.4167 0H8.3333C6.60742 0 5.2083 1.39912 5.2083 3.125V46.875C5.2083 48.6009 6.60742 50 8.3333 50H41.6666C43.3925 50 44.7916 48.6009 44.7916 46.875V9.375C44.7916 9.09873 44.6818 8.83389 44.4864 8.63857ZM42.7083 46.875C42.7083 47.4503 42.2419 47.9167 41.6666 47.9167H8.3333C7.758 47.9167 7.2916 47.4503 7.2916 46.875V3.125C7.2916 2.54971 7.758 2.0833 8.3333 2.0833H34.9853L42.7083 9.80625V46.875V46.875Z" fill="#555555"/>
<path d="M37.5 8.33329C36.9247 8.33329 36.4583 7.86689 36.4583 7.2916V1.0416H34.375V7.2916C34.375 9.01747 35.7741 10.4166 37.5 10.4166H39.5833V8.33329H37.5Z" fill="#555555"/>
<path d="M41.0563 29.1667L34.5031 22.6136L33.0302 24.0865L39.8885 30.9448C40.0838 31.1401 40.3487 31.25 40.6249 31.25H43.7499V29.1667H41.0563V29.1667Z" fill="#555555"/>
<path d="M30.0814 22.6111L25.7357 26.9568L27.2088 28.43L31.5545 24.0842L30.0814 22.6111Z" fill="#555555"/>
<path d="M17.8336 20.5267L16.3605 21.9998L22.7885 28.4278L24.2616 26.9547L17.8336 20.5267Z" fill="#555555"/>
<path d="M13.4333 20.5208C11.9427 22.0114 9.74375 24.2031 8.94482 25H6.25V27.0833H9.375C9.65234 27.0851 9.91875 26.9755 10.1146 26.7791C10.1146 26.7791 13.0552 23.8458 14.9062 21.9936L13.4333 20.5208Z" fill="#555555"/>
<path d="M15.625 16.6667C13.8991 16.6667 12.5 18.0658 12.5 19.7917C12.5 21.5176 13.8991 22.9167 15.625 22.9167C17.3509 22.9167 18.75 21.5176 18.75 19.7917C18.75 18.0658 17.3509 16.6667 15.625 16.6667ZM15.625 20.8333C15.0497 20.8333 14.5833 20.3669 14.5833 19.7916C14.5833 19.2163 15.0497 18.7499 15.625 18.7499C16.2003 18.7499 16.6667 19.2163 16.6667 19.7916C16.6667 20.367 16.2003 20.8333 15.625 20.8333Z" fill="#555555"/>
<path d="M25 26.0417C23.2741 26.0417 21.875 27.4408 21.875 29.1667C21.875 30.8926 23.2741 32.2917 25 32.2917C26.7259 32.2917 28.125 30.8926 28.125 29.1667C28.125 27.4408 26.7259 26.0417 25 26.0417ZM25 30.2083C24.4247 30.2083 23.9583 29.7419 23.9583 29.1666C23.9583 28.5913 24.4247 28.1249 25 28.1249C25.5753 28.1249 26.0417 28.5913 26.0417 29.1666C26.0417 29.742 25.5753 30.2083 25 30.2083Z" fill="#555555"/>
<path d="M32.2917 18.75C30.5658 18.75 29.1667 20.1491 29.1667 21.875C29.1667 23.6009 30.5658 25 32.2917 25C34.0176 25 35.4167 23.6009 35.4167 21.875C35.4167 20.1491 34.0176 18.75 32.2917 18.75ZM32.2917 22.9167C31.7164 22.9167 31.25 22.4503 31.25 21.875C31.25 21.2997 31.7164 20.8333 32.2917 20.8333C32.867 20.8333 33.3334 21.2997 33.3334 21.875C33.3334 22.4503 32.867 22.9167 32.2917 22.9167Z" fill="#555555"/>
<path d="M36.4583 37.5H26.0417V39.5833H35.4167V41.6666H26.0417V43.75H36.4584C37.0337 43.75 37.5001 43.2836 37.5001 42.7083V38.5416C37.5 37.9664 37.0336 37.5 36.4583 37.5Z" fill="#555555"/>
<path d="M23.9583 37.5H21.875V39.5833H23.9583V37.5Z" fill="#555555"/>
<path d="M19.7916 37.5H17.7083V39.5833H19.7916V37.5Z" fill="#555555"/>
<path d="M23.9583 41.6667H12.5V43.75H23.9583V41.6667Z" fill="#555555"/>
</svg>
