<svg width="50" height="50" viewBox="0 0 50 50" fill="none" xmlns="http://www.w3.org/2000/svg">
<g clip-path="url(#clip0)">
<path d="M4.03217 44.3378H25V42.7245H4.03217C2.69607 42.7245 1.61283 41.6413 1.61283 40.3052V4.82133C1.61283 3.48482 2.69607 2.40198 4.03217 2.40198H39.516C40.8527 2.40198 41.9354 3.48482 41.9354 4.82133V23.3696H43.5486V4.82133C43.546 2.59543 41.7421 0.791782 39.516 0.789154H4.03217C1.80668 0.791782 0.00282988 2.59543 0 4.82133V40.3052C0.00282988 42.5311 1.80668 44.3347 4.03217 44.3378Z" fill="#555555"/>
<path d="M3.22607 4.01521H4.83871V5.62784H3.22607V4.01521Z" fill="#555555"/>
<path d="M6.45154 4.01521H8.06476V5.62784H6.45154V4.01521Z" fill="#555555"/>
<path d="M9.6774 4.01521H11.2904V5.62784H9.6774V4.01521Z" fill="#555555"/>
<path d="M3.22607 7.24068H40.3226V8.8539H3.22607V7.24068Z" fill="#555555"/>
<path d="M11.5267 10.7028L9.4783 12.7513C7.74682 11.605 5.42813 11.9567 4.11406 13.5649C2.80018 15.1728 2.91803 17.5152 4.38633 18.9833C5.85443 20.452 8.19697 20.5698 9.80515 19.2558C11.4131 17.9419 11.7651 15.6228 10.6185 13.8917L12.6668 11.8433L11.5267 10.7028ZM7.25785 18.5309C5.92195 18.5309 4.83871 17.4479 4.83871 16.1118C4.83871 14.7754 5.92195 13.6926 7.25785 13.6926C7.61765 13.6938 7.97159 13.7763 8.2944 13.9342L6.68804 15.5407L7.82808 16.6812L9.43565 15.0756C9.59352 15.3982 9.67619 15.7522 9.6774 16.1118C9.6774 17.4479 8.59457 18.5309 7.25785 18.5309Z" fill="#555555"/>
<path d="M13.7097 13.6926H27.4191V15.3052H13.7097V13.6926Z" fill="#555555"/>
<path d="M13.7097 16.9183H19.3548V18.5309H13.7097V16.9183Z" fill="#555555"/>
<path d="M20.9678 16.9183H32.2578V18.5309H20.9678V16.9183Z" fill="#555555"/>
<path d="M29.0322 13.6926H37.0967V15.3052H29.0322V13.6926Z" fill="#555555"/>
<path d="M11.5267 20.3802L9.4783 22.4286C7.74682 21.2823 5.42813 21.6341 4.11406 23.2422C2.80018 24.8504 2.91803 27.1926 4.38633 28.6611C5.85443 30.1294 8.19697 30.2472 9.80515 28.9331C11.4131 27.6191 11.7651 25.3008 10.6185 23.5691L12.6668 21.5207L11.5267 20.3802ZM7.25785 28.2085C5.92195 28.2085 4.83871 27.1252 4.83871 25.7891C4.83871 24.4528 5.92195 23.3696 7.25785 23.3696C7.61765 23.371 7.97159 23.4537 8.2944 23.6115L6.68804 25.2185L7.82808 26.3585L9.43565 24.7528C9.59352 25.0756 9.67619 25.4295 9.6774 25.7891C9.6774 27.1252 8.59457 28.2085 7.25785 28.2085Z" fill="#555555"/>
<path d="M13.7097 23.3696H27.4191V24.9826H13.7097V23.3696Z" fill="#555555"/>
<path d="M13.7097 26.5957H19.3548V28.2085H13.7097V26.5957Z" fill="#555555"/>
<path d="M20.9678 26.5957H27.4192V28.2085H20.9678V26.5957Z" fill="#555555"/>
<path d="M29.0322 23.3696H32.2578V24.9826H29.0322V23.3696Z" fill="#555555"/>
<path d="M11.5267 30.0576L9.4783 32.106C7.74682 30.9597 5.42813 31.3114 4.11406 32.9196C2.80018 34.5278 2.91803 36.87 4.38633 38.3385C5.85443 39.807 8.19697 39.9244 9.80515 38.6105C11.4131 37.2965 11.7651 34.978 10.6185 33.2463L12.6668 31.198L11.5267 30.0576ZM7.25785 37.8859C5.92195 37.8859 4.83871 36.8026 4.83871 35.4665C4.83871 34.1302 5.92195 33.0472 7.25785 33.0472C7.61765 33.0484 7.97159 33.1309 8.2944 33.2889L6.68804 34.8959L7.82808 36.0359L9.43565 34.4302C9.59352 34.753 9.67619 35.1071 9.6774 35.4665C9.6774 36.8026 8.59457 37.8859 7.25785 37.8859Z" fill="#555555"/>
<path d="M13.7097 33.0471H24.1935V34.6604H13.7097V33.0471Z" fill="#555555"/>
<path d="M13.7097 36.2731H19.3548V37.8859H13.7097V36.2731Z" fill="#555555"/>
<path d="M20.9678 36.2731H24.1935V37.8859H20.9678V36.2731Z" fill="#555555"/>
<path d="M37.9035 49.1765C44.5846 49.1765 50 43.7601 50 37.0796C50 30.3984 44.5846 24.9826 37.9035 24.9826C31.2223 24.9826 25.8065 30.3984 25.8065 37.0796C25.8144 43.7571 31.2255 49.1684 37.9035 49.1765ZM37.9035 26.5957C43.6932 26.5957 48.3874 31.2894 48.3874 37.0796C48.3874 42.8697 43.6932 47.5633 37.9035 47.5633C32.1131 47.5633 27.4191 42.8697 27.4191 37.0796C27.426 31.2922 32.1157 26.6021 37.9035 26.5957Z" fill="#555555"/>
<path d="M32.9841 37.5253L31.5405 38.2461L33.1535 41.472C33.2691 41.704 33.4898 41.8663 33.746 41.9078C33.7876 41.9142 33.8292 41.9177 33.8711 41.9183C34.0847 41.9183 34.2899 41.8332 34.4415 41.682L44.1185 32.0046L42.9784 30.8641L34.0918 39.7504L32.9841 37.5253Z" fill="#555555"/>
</g>
<defs>
<clipPath id="clip0">
<rect width="50" height="50" fill="white"/>
</clipPath>
</defs>
</svg>
