<svg width="50" height="50" viewBox="0 0 50 50" fill="none" xmlns="http://www.w3.org/2000/svg">
<path d="M5.46875 43.75H7.03125V45.3125H5.46875V43.75Z" fill="#555555"/>
<path d="M8.59375 42.1875H10.1562V43.75H8.59375V42.1875Z" fill="#555555"/>
<path d="M42.9688 43.75H44.5312V45.3125H42.9688V43.75Z" fill="#555555"/>
<path d="M39.8438 42.1875H41.4062V43.75H39.8438V42.1875Z" fill="#555555"/>
<path d="M47.6562 10.1563H40.625V8.59375C40.625 8.38655 40.5427 8.18784 40.3962 8.04132C40.2496 7.89481 40.0509 7.8125 39.8437 7.8125H37.3984C37.2236 7.14375 36.832 6.55183 36.285 6.12936C35.7379 5.70689 35.0662 5.47772 34.375 5.47772C33.6838 5.47772 33.0121 5.70689 32.465 6.12936C31.9179 6.55183 31.5263 7.14375 31.3515 7.8125H28.9062C28.699 7.8125 28.5003 7.89481 28.3538 8.04132C28.2073 8.18784 28.125 8.38655 28.125 8.59375V10.1563H21.0937C20.8865 10.1563 20.6878 10.2386 20.5413 10.3851C20.3948 10.5316 20.3125 10.7303 20.3125 10.9375V15.625H12.8047C11.8753 15.6245 10.9761 15.9554 10.2688 16.5582C9.56138 17.161 9.09213 17.9963 8.94528 18.9141L7.91404 26.5625H7.56247L6.19529 23.1484C6.13739 23.0031 6.03718 22.8784 5.90764 22.7907C5.7781 22.7029 5.62519 22.6561 5.46872 22.6563H2.34372C2.13652 22.6563 1.93781 22.7386 1.7913 22.8851C1.64478 23.0316 1.56247 23.2303 1.56247 23.4375V26.5625C1.56194 26.7484 1.62772 26.9284 1.74801 27.0702C1.8683 27.212 2.0352 27.3062 2.21872 27.3359L2.99997 27.4609C2.55331 27.8252 2.19278 28.2838 1.94425 28.8038C1.69572 29.3238 1.56534 29.8924 1.56247 30.4688V40.625C1.56247 40.8322 1.64478 41.0309 1.7913 41.1774C1.93781 41.324 2.13652 41.4063 2.34372 41.4063H3.12497V46.0938C3.12621 46.5078 3.29123 46.9045 3.58398 47.1972C3.87674 47.49 4.27345 47.655 4.68747 47.6563H10.9375C11.3515 47.655 11.7482 47.49 12.041 47.1972C12.3337 46.9045 12.4987 46.5078 12.5 46.0938V41.4063H37.5V46.0938C37.5012 46.5078 37.6662 46.9045 37.959 47.1972C38.2517 47.49 38.6485 47.655 39.0625 47.6563H45.3125C45.7265 47.655 46.1232 47.49 46.416 47.1972C46.7087 46.9045 46.8737 46.5078 46.875 46.0938V41.4063H47.6562C47.8634 41.4063 48.0621 41.324 48.2087 41.1774C48.3552 41.0309 48.4375 40.8322 48.4375 40.625V10.9375C48.4375 10.7303 48.3552 10.5316 48.2087 10.3851C48.0621 10.2386 47.8634 10.1563 47.6562 10.1563V10.1563ZM3.12497 24.2188H4.93747L5.78904 26.3438L3.12497 25.8984V24.2188ZM3.12497 32.8125H4.68747V36.7188H3.12497V32.8125ZM10.9375 46.0938H10.1562V44.5313H8.59372V46.0938H4.68747V41.4063H5.46872V42.9688H7.03122V41.4063H10.9375V46.0938ZM20.3125 39.8438H3.12497V38.2813H20.3125V39.8438ZM6.24997 36.7188V32.8125H14.0625V36.7188H6.24997ZM20.3125 36.7188H15.625V32.8125H20.3125V36.7188ZM20.3125 31.25H3.12497V30.4688C3.12683 29.8477 3.37435 29.2527 3.81349 28.8135C4.25263 28.3744 4.84769 28.1269 5.46872 28.125H20.3125V31.25ZM20.3125 26.5625H9.48435L10.4922 19.1484C10.5811 18.5998 10.8628 18.1009 11.2867 17.7414C11.7106 17.382 12.2489 17.1856 12.8047 17.1875H20.3125V26.5625ZM29.6875 9.375H32.0312C32.2384 9.375 32.4371 9.29269 32.5837 9.14618C32.7302 8.99967 32.8125 8.80095 32.8125 8.59375C32.8125 8.17935 32.9771 7.78192 33.2701 7.4889C33.5631 7.19587 33.9606 7.03125 34.375 7.03125C34.7894 7.03125 35.1868 7.19587 35.4798 7.4889C35.7729 7.78192 35.9375 8.17935 35.9375 8.59375C35.9375 8.80095 36.0198 8.99967 36.1663 9.14618C36.3128 9.29269 36.5115 9.375 36.7187 9.375H39.0625V13.2813H29.6875V9.375ZM28.9062 14.8438H39.8437C40.0509 14.8438 40.2496 14.7614 40.3962 14.6149C40.5427 14.4684 40.625 14.2697 40.625 14.0625H44.5312V37.5H24.2187V14.0625H28.125C28.125 14.2697 28.2073 14.4684 28.3538 14.6149C28.5003 14.7614 28.699 14.8438 28.9062 14.8438ZM45.3125 46.0938H41.4062V44.5313H39.8437V46.0938H39.0625V41.4063H42.9687V42.9688H44.5312V41.4063H45.3125V46.0938ZM46.875 39.8438H21.875V11.7188H28.125V12.5H23.4375C23.2303 12.5 23.0316 12.5823 22.885 12.7288C22.7385 12.8753 22.6562 13.0741 22.6562 13.2813V38.2813C22.6562 38.4885 22.7385 38.6872 22.885 38.8337C23.0316 38.9802 23.2303 39.0625 23.4375 39.0625H45.3125C45.5197 39.0625 45.7184 38.9802 45.8649 38.8337C46.0114 38.6872 46.0937 38.4885 46.0937 38.2813V13.2813C46.0937 13.0741 46.0114 12.8753 45.8649 12.7288C45.7184 12.5823 45.5197 12.5 45.3125 12.5H40.625V11.7188H46.875V39.8438Z" fill="#555555"/>
<path d="M28.9064 21.0938C29.0237 21.0939 29.1395 21.0677 29.2453 21.0169C29.351 20.9662 29.444 20.8924 29.5173 20.8008L32.6423 16.8945L31.422 15.918L28.7447 19.2648L26.997 18.1L26.1298 19.4L28.4736 20.9625C28.6017 21.048 28.7523 21.0936 28.9064 21.0938Z" fill="#555555"/>
<path d="M28.9064 28.125C29.0237 28.1252 29.1395 28.0989 29.2453 28.0482C29.351 27.9975 29.444 27.9236 29.5173 27.832L32.6423 23.9258L31.422 22.9492L28.7447 26.2961L26.997 25.1313L26.1298 26.4313L28.4736 27.9938C28.6017 28.0792 28.7523 28.1249 28.9064 28.125V28.125Z" fill="#555555"/>
<path d="M28.9064 35.1563C29.0237 35.1564 29.1395 35.1302 29.2453 35.0795C29.351 35.0287 29.444 34.9549 29.5173 34.8633L32.6423 30.957L31.422 29.9805L28.7447 33.3273L26.997 32.1625L26.1298 33.4625L28.4736 35.025C28.6017 35.1105 28.7523 35.1561 28.9064 35.1563V35.1563Z" fill="#555555"/>
<path d="M34.375 19.5312H42.9688V21.0938H34.375V19.5312Z" fill="#555555"/>
<path d="M34.375 26.5625H42.9688V28.125H34.375V26.5625Z" fill="#555555"/>
<path d="M34.375 33.5938H42.9688V35.1562H34.375V33.5938Z" fill="#555555"/>
</svg>
