<svg width="50" height="50" viewBox="0 0 50 50" fill="none" xmlns="http://www.w3.org/2000/svg">
<path d="M8.33333 0V10.4167H0V29.1667H8.33333V50H37.5L50 37.5V0H8.33333ZM2.08333 27.0833V12.5H33.3333V27.0833H2.08333ZM37.5 47.0542V37.5H47.0542L37.5 47.0542ZM47.9167 35.4167H35.4167V47.9167H10.4167V29.1667H35.4167V10.4167H10.4167V2.08333H47.9167V35.4167Z" fill="#555555"/>
<path d="M10.2437 20.8625C10.2437 21.3458 10.2146 21.7354 10.1562 22.0312C10.1 22.3271 10.0208 22.5562 9.91875 22.7187C9.81875 22.8812 9.7 22.9896 9.5625 23.0437C9.425 23.0979 9.27708 23.125 9.11875 23.125C8.92708 23.125 8.75833 23.0833 8.6125 23.0042C8.46666 22.9271 8.34583 22.7729 8.25 22.5417C8.15416 22.3104 8.08125 21.9896 8.0375 21.5729C7.99166 21.1562 7.96875 20.6104 7.96875 19.9354C7.96875 19.3021 7.98333 18.7667 8.01875 18.3292C8.05208 17.8896 8.11041 17.5354 8.19375 17.2646C8.27708 16.9937 8.39166 16.8 8.5375 16.6792C8.68333 16.5562 8.86875 16.4958 9.09375 16.4958C9.50208 16.4958 9.78333 16.6437 9.9375 16.9417C10.0896 17.2354 10.1667 17.7083 10.1667 18.3646H11.9646C11.9646 18.0396 11.9417 17.6917 11.8958 17.3208C11.8521 16.95 11.7333 16.6042 11.5521 16.2833C11.3708 15.9625 11.0937 15.6979 10.7229 15.4896C10.3521 15.2812 9.84791 15.1771 9.20416 15.1771C8.53125 15.1771 7.99166 15.2937 7.59375 15.5208C7.19375 15.75 6.88958 16.0708 6.675 16.4771C6.46458 16.8854 6.325 17.3771 6.2625 17.9458C6.20208 18.5167 6.16875 19.1396 6.16875 19.8146C6.16875 20.4958 6.20208 21.1229 6.2625 21.6875C6.325 22.2542 6.4625 22.7417 6.675 23.15C6.8875 23.5583 7.19375 23.8708 7.59375 24.0875C7.99166 24.3021 8.53125 24.4125 9.20416 24.4125C9.79583 24.4125 10.2771 24.3187 10.6479 24.1354C11.0187 23.9521 11.3042 23.6979 11.5104 23.375C11.7125 23.05 11.8542 22.6708 11.9292 22.2375C12.0042 21.8042 12.0417 21.3437 12.0417 20.8625H10.2437V20.8625Z" fill="#555555"/>
<path d="M19.8271 20.9604C19.7771 20.7333 19.6875 20.5292 19.5583 20.3417C19.4313 20.1542 19.2563 19.9792 19.0396 19.8167C18.825 19.6521 18.5458 19.4958 18.2042 19.3458L16.8167 18.7458C16.4333 18.5896 16.1833 18.4167 16.0667 18.2271C15.95 18.0396 15.8917 17.8104 15.8917 17.5333C15.8917 17.4 15.9042 17.2708 15.9354 17.1458C15.9646 17.0208 16.0188 16.9063 16.0979 16.8104C16.1771 16.7146 16.2854 16.6375 16.4167 16.5792C16.55 16.5229 16.7167 16.4917 16.9167 16.4917C17.2667 16.4917 17.5167 16.6083 17.6667 16.8354C17.8146 17.0667 17.8896 17.3938 17.8896 17.8188H19.6146V17.5688C19.6146 17.1438 19.5438 16.7792 19.4083 16.475C19.2708 16.1729 19.0792 15.9229 18.8333 15.7271C18.5875 15.5292 18.2958 15.3896 17.9583 15.3021C17.6208 15.2146 17.2521 15.1708 16.8521 15.1708C15.9938 15.1708 15.3167 15.3875 14.8271 15.8208C14.3354 16.2542 14.0896 16.9104 14.0896 17.7938C14.0896 18.1625 14.1354 18.4833 14.2271 18.7646C14.3188 19.0438 14.4625 19.2896 14.6583 19.5021C14.8542 19.7167 15.0979 19.9021 15.3896 20.0583C15.6833 20.2167 16.0292 20.3646 16.4271 20.4979C16.7271 20.5979 16.9813 20.6958 17.1834 20.7917C17.3854 20.8875 17.55 20.9917 17.6771 21.1104C17.8021 21.225 17.8917 21.3562 17.9459 21.5021C17.9979 21.6479 18.0271 21.8208 18.0271 22.0208C18.0271 22.3937 17.9146 22.6729 17.6959 22.8521C17.475 23.0312 17.2292 23.1208 16.9521 23.1208C16.7208 23.1208 16.525 23.0854 16.3729 23.0208C16.2188 22.9542 16.0938 22.8625 16.0021 22.7437C15.9104 22.6271 15.85 22.4833 15.8146 22.3125C15.7833 22.1437 15.7646 21.9542 15.7646 21.7458V21.4854H13.9646V21.8479C13.9646 22.6729 14.1813 23.3062 14.6188 23.7479C15.0583 24.1896 15.7854 24.4104 16.8021 24.4104C17.7771 24.4104 18.5375 24.1937 19.0833 23.7646C19.6292 23.3354 19.9021 22.65 19.9021 21.7083C19.9021 21.4354 19.8771 21.1833 19.8271 20.9604Z" fill="#555555"/>
<path d="M26.0187 15.3458L24.6937 21.9458H24.6542L23.3979 15.3458H21.4729L23.5208 24.2708H25.8333L27.8833 15.3458H26.0187Z" fill="#555555"/>
</svg>
