<svg width="50" height="50" viewBox="0 0 50 50" fill="none" xmlns="http://www.w3.org/2000/svg">
<path d="M33.871 3.2258C28.9799 3.2258 25 7.20569 25 12.0968H26.6129C26.6129 8.09444 29.8686 4.8387 33.871 4.8387V3.2258Z" fill="#555555"/>
<path d="M41.129 12.0968C41.129 16.0991 37.8733 19.3548 33.871 19.3548V20.9677C38.7621 20.9677 42.7419 16.9879 42.7419 12.0968H41.129Z" fill="#555555"/>
<path d="M45.9677 12.0968C45.9677 5.42662 40.5411 0 33.871 0C29.2386 0 25.2122 2.61939 23.18 6.45161H4.83871C4.39256 6.45161 4.03226 6.81192 4.03226 7.25806V49.1935C4.03226 49.6397 4.39256 50 4.83871 50H40.3226C40.7687 50 41.129 49.6397 41.129 49.1935V21.7517C44.0603 19.5419 45.9677 16.0428 45.9677 12.0968V12.0968ZM24.216 19.3548H8.87097V11.2903H21.8151C21.7974 11.5581 21.7742 11.8243 21.7742 12.0968C21.7742 14.8217 22.6905 17.3308 24.216 19.3548ZM39.5161 48.3871H5.64516V8.06452H22.4798C22.2936 8.58863 22.1306 9.12338 22.0175 9.67742H8.06452C7.61837 9.67742 7.25806 10.0377 7.25806 10.4839V20.1613C7.25806 20.6074 7.61837 20.9677 8.06452 20.9677H25.6741C27.8324 22.963 30.7066 24.1935 33.871 24.1935C35.9095 24.1935 37.8292 23.6824 39.5161 22.7878V48.3871ZM33.871 22.5806C28.0903 22.5806 23.3871 17.8774 23.3871 12.0968C23.3871 6.31615 28.0903 1.6129 33.871 1.6129C39.6516 1.6129 44.3548 6.31615 44.3548 12.0968C44.3548 17.8774 39.6516 22.5806 33.871 22.5806Z" fill="#555555"/>
<path d="M34.6774 16.129C36.0111 16.129 37.0968 15.0434 37.0968 13.7097C37.0968 12.376 36.0111 11.2903 34.6774 11.2903H33.0645C32.6196 11.2903 32.2581 10.9288 32.2581 10.4839C32.2581 10.0389 32.6196 9.67742 33.0645 9.67742H37.0968V8.06452H34.6774V6.45161H33.0645V8.06452C31.7308 8.06452 30.6452 9.15016 30.6452 10.4839C30.6452 11.8176 31.7308 12.9032 33.0645 12.9032H34.6774C35.1224 12.9032 35.4839 13.2647 35.4839 13.7097C35.4839 14.1546 35.1224 14.5161 34.6774 14.5161H30.6452V16.129H33.0645V17.7419H34.6774V16.129Z" fill="#555555"/>
<path d="M12.9032 24.1935H8.06451C7.61836 24.1935 7.25806 24.5538 7.25806 25V29.8387C7.25806 30.2849 7.61836 30.6452 8.06451 30.6452H12.9032C13.3494 30.6452 13.7097 30.2849 13.7097 29.8387V25C13.7097 24.5538 13.3494 24.1935 12.9032 24.1935ZM12.0968 29.0323H8.87096V25.8064H12.0968V29.0323Z" fill="#555555"/>
<path d="M20.9677 24.1935H16.129C15.6829 24.1935 15.3226 24.5538 15.3226 25V29.8387C15.3226 30.2849 15.6829 30.6452 16.129 30.6452H20.9677C21.4139 30.6452 21.7742 30.2849 21.7742 29.8387V25C21.7742 24.5538 21.4139 24.1935 20.9677 24.1935ZM20.1613 29.0323H16.9355V25.8064H20.1613V29.0323Z" fill="#555555"/>
<path d="M29.0322 24.1935H24.1935C23.7474 24.1935 23.3871 24.5538 23.3871 25V29.8387C23.3871 30.2849 23.7474 30.6452 24.1935 30.6452H29.0322C29.4784 30.6452 29.8387 30.2849 29.8387 29.8387V25C29.8387 24.5538 29.4784 24.1935 29.0322 24.1935ZM28.2258 29.0323H25V25.8064H28.2258V29.0323Z" fill="#555555"/>
<path d="M12.9032 32.2581H8.06451C7.61836 32.2581 7.25806 32.6184 7.25806 33.0645V37.9032C7.25806 38.3494 7.61836 38.7097 8.06451 38.7097H12.9032C13.3494 38.7097 13.7097 38.3494 13.7097 37.9032V33.0645C13.7097 32.6184 13.3494 32.2581 12.9032 32.2581ZM12.0968 37.0968H8.87096V33.871H12.0968V37.0968Z" fill="#555555"/>
<path d="M20.9677 32.2581H16.129C15.6829 32.2581 15.3226 32.6184 15.3226 33.0645V37.9032C15.3226 38.3494 15.6829 38.7097 16.129 38.7097H20.9677C21.4139 38.7097 21.7742 38.3494 21.7742 37.9032V33.0645C21.7742 32.6184 21.4139 32.2581 20.9677 32.2581ZM20.1613 37.0968H16.9355V33.871H20.1613V37.0968Z" fill="#555555"/>
<path d="M29.0322 32.2581H24.1935C23.7474 32.2581 23.3871 32.6184 23.3871 33.0645V37.9032C23.3871 38.3494 23.7474 38.7097 24.1935 38.7097H29.0322C29.4784 38.7097 29.8387 38.3494 29.8387 37.9032V33.0645C29.8387 32.6184 29.4784 32.2581 29.0322 32.2581ZM28.2258 37.0968H25V33.871H28.2258V37.0968Z" fill="#555555"/>
<path d="M31.4516 33.0645V45.9677C31.4516 46.4139 31.8119 46.7742 32.2581 46.7742H37.0968C37.5429 46.7742 37.9032 46.4139 37.9032 45.9677V33.0645C37.9032 32.6184 37.5429 32.2581 37.0968 32.2581H32.2581C31.8119 32.2581 31.4516 32.6184 31.4516 33.0645ZM33.0645 33.871H36.2903V45.1613H33.0645V33.871Z" fill="#555555"/>
<path d="M12.9032 40.3226H8.06451C7.61836 40.3226 7.25806 40.6829 7.25806 41.129V45.9677C7.25806 46.4139 7.61836 46.7742 8.06451 46.7742H12.9032C13.3494 46.7742 13.7097 46.4139 13.7097 45.9677V41.129C13.7097 40.6829 13.3494 40.3226 12.9032 40.3226ZM12.0968 45.1613H8.87096V41.9355H12.0968V45.1613Z" fill="#555555"/>
<path d="M20.9677 40.3226H16.129C15.6829 40.3226 15.3226 40.6829 15.3226 41.129V45.9677C15.3226 46.4139 15.6829 46.7742 16.129 46.7742H20.9677C21.4139 46.7742 21.7742 46.4139 21.7742 45.9677V41.129C21.7742 40.6829 21.4139 40.3226 20.9677 40.3226ZM20.1613 45.1613H16.9355V41.9355H20.1613V45.1613Z" fill="#555555"/>
<path d="M29.0322 40.3226H24.1935C23.7474 40.3226 23.3871 40.6829 23.3871 41.129V45.9677C23.3871 46.4139 23.7474 46.7742 24.1935 46.7742H29.0322C29.4784 46.7742 29.8387 46.4139 29.8387 45.9677V41.129C29.8387 40.6829 29.4784 40.3226 29.0322 40.3226ZM28.2258 45.1613H25V41.9355H28.2258V45.1613Z" fill="#555555"/>
</svg>
