<svg width="50" height="50" viewBox="0 0 50 50" fill="none" xmlns="http://www.w3.org/2000/svg">
<g clip-path="url(#clip0)">
<path d="M36.4583 50C28.9917 50 22.9167 43.925 22.9167 36.4583C22.9167 28.9917 28.9917 22.9167 36.4583 22.9167C43.925 22.9167 50 28.9917 50 36.4583C50 43.925 43.925 50 36.4583 50ZM36.4583 25C30.1396 25 25 30.1396 25 36.4583C25 42.7771 30.1396 47.9167 36.4583 47.9167C42.7771 47.9167 47.9167 42.7771 47.9167 36.4583C47.9167 30.1396 42.7771 25 36.4583 25Z" fill="#555555"/>
<path d="M34.375 41.6666C34.1 41.6666 33.8333 41.5562 33.6375 41.3625L29.4708 37.1958C29.0646 36.7896 29.0646 36.1292 29.4708 35.7229C29.8771 35.3167 30.5375 35.3167 30.9437 35.7229L34.3229 39.1021L40.8812 31.6062C41.2604 31.1708 41.9187 31.1271 42.3521 31.5083C42.7854 31.8875 42.8292 32.5458 42.45 32.9792L35.1583 41.3125C34.9687 41.5291 34.6958 41.6583 34.4083 41.6666C34.3979 41.6666 34.3854 41.6666 34.375 41.6666V41.6666Z" fill="#555555"/>
<path d="M17.7083 43.75H5.20833C2.3375 43.75 0 41.4125 0 38.5417V5.20833C0 2.3375 2.3375 0 5.20833 0H28.125C30.9958 0 33.3333 2.3375 33.3333 5.20833V17.7083C33.3333 18.2833 32.8667 18.75 32.2917 18.75C31.7167 18.75 31.25 18.2833 31.25 17.7083V5.20833C31.25 3.48542 29.8479 2.08333 28.125 2.08333H5.20833C3.48542 2.08333 2.08333 3.48542 2.08333 5.20833V38.5417C2.08333 40.2646 3.48542 41.6667 5.20833 41.6667H17.7083C18.2833 41.6667 18.75 42.1333 18.75 42.7083C18.75 43.2833 18.2833 43.75 17.7083 43.75Z" fill="#555555"/>
<path d="M19.7917 28.9375C19.2167 28.9375 18.75 28.4708 18.75 27.8958V11.4583C18.75 10.8833 19.2167 10.4167 19.7917 10.4167H26.0417C26.6167 10.4167 27.0833 10.8833 27.0833 11.4583V20.875C27.0833 21.45 26.6167 21.9167 26.0417 21.9167C25.4667 21.9167 25 21.45 25 20.875V12.5H20.8333V27.8958C20.8333 28.4729 20.3667 28.9375 19.7917 28.9375Z" fill="#555555"/>
<path d="M13.5417 31.25H7.29166C6.71666 31.25 6.24999 30.7833 6.24999 30.2083V19.7917C6.24999 19.2167 6.71666 18.75 7.29166 18.75H13.5417C14.1167 18.75 14.5833 19.2167 14.5833 19.7917V30.2083C14.5833 30.7833 14.1167 31.25 13.5417 31.25ZM8.33332 29.1667H12.5V20.8333H8.33332V29.1667Z" fill="#555555"/>
<path d="M18.7917 31.25H5.20834C4.63334 31.25 4.16667 30.7833 4.16667 30.2083C4.16667 29.6333 4.63334 29.1667 5.20834 29.1667H18.7917C19.3667 29.1667 19.8333 29.6333 19.8333 30.2083C19.8333 30.7833 19.3667 31.25 18.7917 31.25Z" fill="#555555"/>
</g>
<defs>
<clipPath id="clip0">
<rect width="50" height="50" fill="white"/>
</clipPath>
</defs>
</svg>
