<svg width="50" height="50" viewBox="0 0 50 50" fill="none" xmlns="http://www.w3.org/2000/svg">
<g clip-path="url(#clip0)">
<path d="M41.1869 29.8952H19.9055C19.3663 29.8952 18.929 30.3325 18.929 30.8718C18.929 31.411 19.3663 31.8483 19.9055 31.8483H41.1869C41.7261 31.8483 42.1634 31.411 42.1634 30.8718C42.1634 30.3325 41.7261 29.8952 41.1869 29.8952Z" fill="#555555"/>
<path d="M41.1869 35.7546H19.9055C19.3663 35.7546 18.929 36.1919 18.929 36.7312C18.929 37.2704 19.3663 37.7077 19.9055 37.7077H41.1869C41.7261 37.7077 42.1634 37.2704 42.1634 36.7312C42.1634 36.1919 41.7261 35.7546 41.1869 35.7546Z" fill="#555555"/>
<path d="M42.1673 12.5C42.1673 11.9607 41.73 11.5234 41.1908 11.5234H19.9017C19.3624 11.5234 18.9251 11.9607 18.9251 12.5V25C18.9251 25.5393 19.3624 25.9766 19.9017 25.9766H41.1908C41.73 25.9766 42.1673 25.5393 42.1673 25V12.5ZM40.2142 24.0234H20.8783V13.4766H40.2142V24.0234Z" fill="#555555"/>
<path d="M30.5459 7.61719C30.8027 7.61719 31.0547 7.5127 31.2362 7.33096C31.4188 7.14844 31.5224 6.89746 31.5224 6.63965C31.5224 6.38272 31.4188 6.13184 31.2362 5.9501C31.0547 5.76748 30.8027 5.66309 30.5459 5.66309C30.289 5.66309 30.0371 5.76748 29.8554 5.9501C29.6738 6.13174 29.5693 6.38272 29.5693 6.63965C29.5693 6.89746 29.6737 7.14844 29.8554 7.33096C30.0371 7.5127 30.289 7.61719 30.5459 7.61719Z" fill="#555555"/>
<path d="M47.0703 5.66367H34.9405C34.4013 5.66367 33.964 6.10098 33.964 6.64023C33.964 7.17949 34.4013 7.6168 34.9405 7.6168H46.0938V42.2934H15.4134V7.6168H26.1517C26.6909 7.6168 27.1282 7.17949 27.1282 6.64023C27.1282 6.10098 26.6909 5.66367 26.1517 5.66367H15.328C14.8153 2.45781 12.0313 0 8.6832 0C4.97227 0 1.95312 3.01914 1.95312 6.73008V43.2699C1.95312 46.9809 4.97227 50 8.6832 50H42.2157C42.755 50 43.1923 49.5627 43.1923 49.0234V44.2465H47.0703C47.6096 44.2465 48.0469 43.8092 48.0469 43.2699V6.64023C48.0469 6.10098 47.6096 5.66367 47.0703 5.66367V5.66367ZM3.90625 6.73008C3.90625 4.096 6.04922 1.95312 8.6833 1.95312C11.3174 1.95312 13.4603 4.096 13.4603 6.73008V38.5345C12.2399 37.3036 10.5493 36.5397 8.6832 36.5397C6.81719 36.5397 5.12656 37.3036 3.90625 38.5345V6.73008ZM41.2392 48.0469H8.6832C6.04912 48.0469 3.90625 45.9039 3.90625 43.2698C3.90625 40.6357 6.04922 38.4929 8.6833 38.4929C11.3174 38.4929 13.4603 40.6357 13.4603 43.2698V43.2699C13.4603 43.8092 13.8976 44.2465 14.4368 44.2465H41.2392V48.0469Z" fill="#555555"/>
</g>
<defs>
<clipPath id="clip0">
<rect width="50" height="50" fill="white"/>
</clipPath>
</defs>
</svg>
