<?xml version="1.0" encoding="UTF-8"?>
<svg width="208px" height="60px" viewBox="0 0 208 60" version="1.1" xmlns="http://www.w3.org/2000/svg" xmlns:xlink="http://www.w3.org/1999/xlink">
    <title>Group 25</title>
    <g id="Symbols" stroke="none" stroke-width="1" fill="none" fill-rule="evenodd">
        <g id="Header" transform="translate(-120.000000, -69.000000)">
            <g id="Header-Menu-/-Logo" transform="translate(0.000000, 44.000000)">
                <g id="white-logo" transform="translate(120.000000, 25.000000)">
                    <g id="Group-25">
                        <g id="Group-11" transform="translate(135.731834, 21.944865)" fill="#68BC45">
                            <path d="M7.30215779,15.0334645 C2.77000381,15.0334645 0.08473391,11.6903071 0.08473391,7.65130017 L0.08473391,7.61047318 C0.08473391,3.73441609 2.8939173,0.187481834 7.17931869,0.187481834 C9.51720104,0.187481834 10.9937772,0.884047578 12.42881,2.07376038 L11.7311699,2.87310986 C10.6034138,1.88896453 9.29122007,1.1504974 7.11736194,1.1504974 C3.63131003,1.1504974 1.19171834,4.10364965 1.19171834,7.5685718 L1.19171834,7.61047318 C1.19171834,11.3221479 3.50847093,14.0897881 7.34298478,14.0897881 C9.16838097,14.0897881 10.8698637,13.3312656 11.9159657,12.4495458 L11.9159657,8.32781055 L7.11736194,8.32781055 L7.11736194,7.34330709 L12.9416543,7.34330709 L12.9416543,12.8800199 C11.6491578,14.0285476 9.64004014,15.0334645 7.30215779,15.0334645" id="Fill-1"></path>
                            <path d="M26.1030223,14.7872491 L21.5296832,8.84083391 L16.8345794,8.84083391 L16.8345794,14.7872491 L15.768422,14.7872491 L15.768422,0.432980969 L21.7968493,0.432980969 C24.8932542,0.432980969 26.9235016,2.11476644 26.9235016,4.51388927 L26.9235016,4.55471626 C26.9235016,6.9538391 25.1389324,8.32798962 22.7197542,8.65567993 L27.4564012,14.7872491 L26.1030223,14.7872491 Z M25.8566279,4.55471626 C25.8566279,2.62761073 24.3395829,1.4171263 21.7356088,1.4171263 L16.8345794,1.4171263 L16.8345794,7.87710208 L21.6736521,7.87710208 C24.073133,7.87710208 25.8566279,6.66661765 25.8566279,4.59590138 L25.8566279,4.55471626 Z" id="Fill-3"></path>
                            <path d="M36.1272301,15.0334645 C31.779872,15.0334645 28.9298616,11.5678261 28.9298616,7.65130017 L28.9298616,7.61047318 C28.9298616,3.6935891 31.8214152,0.187481834 36.1684152,0.187481834 C40.5157734,0.187481834 43.3661419,3.65240398 43.3661419,7.5685718 C43.3861972,7.58970156 43.3861972,7.58970156 43.3661419,7.61047318 C43.3661419,11.526641 40.4745882,15.0334645 36.1272301,15.0334645 L36.1272301,15.0334645 Z M42.258083,7.61047318 C42.258083,4.06282266 39.6741644,1.1504974 36.1272301,1.1504974 C32.5799377,1.1504974 30.036846,4.02163754 30.036846,7.5685718 L30.036846,7.61047318 C30.036846,11.1577656 32.6204066,14.0697327 36.1684152,14.0697327 C39.7160657,14.0697327 42.258083,11.1985926 42.258083,7.65130017 L42.258083,7.61047318 Z" id="Fill-5"></path>
                            <path d="M51.6268744,15.0128362 C48.1820076,15.0128362 45.7413415,12.8393362 45.7413415,8.8203846 L45.7413415,0.433303287 L46.8078571,0.433303287 L46.8078571,8.71760087 C46.8078571,12.100869 48.6328952,14.0487462 51.6673433,14.0487462 C54.5800266,14.0487462 56.4455336,12.2853067 56.4455336,8.8203846 L56.4455336,0.433303287 L57.5120491,0.433303287 L57.5120491,8.6975455 C57.5120491,12.8185645 55.1125682,15.0128362 51.6268744,15.0128362" id="Fill-7"></path>
                            <path d="M65.4653258,9.43522474 L61.5892687,9.43522474 L61.5892687,14.7871417 L60.5234694,14.7871417 L60.5234694,0.433231661 L65.7317756,0.433231661 C68.8901372,0.433231661 71.0632791,2.05306038 71.0632791,4.82141678 L71.0632791,4.86224377 C71.0632791,7.87699464 68.459305,9.43522474 65.4653258,9.43522474 L65.4653258,9.43522474 Z M69.9971216,4.8830154 C69.9971216,2.60673166 68.233324,1.41737699 65.6504798,1.41737699 L61.5892687,1.41737699 L61.5892687,8.45107941 L65.5265663,8.45107941 C68.1921389,8.45107941 69.9971216,7.05687353 69.9971216,4.92420052 L69.9971216,4.8830154 Z" id="Fill-9"></path>
                        </g>
                        <polygon id="Fill-12" fill="#CAE2A9" points="11.4871391 44.5106585 18.5870958 48.9482657 19.3635249 34.7483522 0.393658131 25.8734958"></polygon>
                        <path d="M18.6690005,49.1058436 L18.5389988,49.0249059 L11.4096753,44.5568574 L0.165420934,25.666854 L0.432228893,25.7914837 L19.4579642,34.6928419 L19.4543829,34.7537242 L18.6690005,49.1058436 Z M11.5540022,44.4454785 L18.5049763,48.7903298 L19.269587,34.8042208 L0.622396713,26.0801377 L11.5540022,44.4454785 Z" id="Fill-13" fill="#231F20"></path>
                        <polygon id="Fill-14" fill="#92C855" points="42.9925749 9.45538754 19.3634175 34.7484239 53.3314728 50.6290484"></polygon>
                        <path d="M53.4661661,50.7916043 L19.2123218,34.7773967 L19.297199,34.6867894 L43.0402422,9.27198841 L43.0807111,9.43350571 L53.4661661,50.7916043 Z M19.5149429,34.7193794 L53.1972093,50.4660628 L42.9456955,9.63871505 L19.5149429,34.7193794 Z" id="Fill-15" fill="#231F20"></path>
                        <polygon id="Fill-16" fill="#E2EED1" points="19.3635965 34.7484239 18.5871675 48.9479792 38.5555048 43.6863114"></polygon>
                        <path d="M18.4899348,49.0673803 L18.4963811,48.9427505 L19.2806891,34.6099702 L19.4017375,34.6661969 L38.8203431,43.7104495 L18.4899348,49.0673803 Z M19.446504,34.887164 L18.6836839,48.8281484 L38.2895922,43.6624599 L19.446504,34.887164 Z" id="Fill-17" fill="#231F20"></path>
                        <polygon id="Fill-18" fill="#68BC45" points="53.1986061 0.136949481 42.9925749 9.4555308 55.4143656 58.9736554 74.0543933 30.1934927"></polygon>
                        <path d="M55.3755441,59.1919365 L55.3268382,58.9960386 L42.8917967,9.42491055 L53.2156531,-0.0014683391 L53.2743867,0.0862738754 L74.1634801,30.1936718 L74.1294576,30.2441683 L55.3755441,59.1919365 Z M43.094141,9.48579291 L55.4532587,58.7560905 L73.9457362,30.1922393 L53.1816306,0.274651038 L43.094141,9.48579291 Z" id="Fill-19" fill="#231F20"></path>
                        <polygon id="Fill-20" fill="#AFD580" points="26.5744666 4.35237197 0.393622318 25.8735675 19.3634891 34.7484239 42.9926465 9.45538754"></polygon>
                        <path d="M19.3849054,34.858227 L19.3254555,34.8306509 L0.225228893,25.894554 L26.5543396,4.25123564 L26.6008967,4.26627716 L43.1576735,9.41155225 L43.0591874,9.51684291 L19.3849054,34.858227 Z M0.562230623,25.8522945 L19.3422877,34.6390505 L42.8278344,9.49929446 L26.5940922,4.45357993 L0.562230623,25.8522945 Z" id="Fill-21" fill="#231F20"></path>
                        <polygon id="Fill-22" fill="#FEFEFE" points="114.334516 22.4687756 110.572703 28.5208396 106.81089 22.4687756 103.417236 22.4687756 103.417236 36.7804261 106.504329 36.7804261 106.504329 27.4983742 110.491407 33.549722 110.572703 33.549722 114.600608 27.4371337 114.600608 36.7804261 117.728528 36.7804261 117.728528 22.4687756"></polygon>
                        <path d="M95.6422728,22.3669946 L92.7389009,22.3669946 L86.605541,36.7803545 L89.8151154,36.7803545 L91.1237279,33.570422 L97.1754337,33.570422 L98.4840462,36.7803545 L101.775275,36.7803545 L95.6422728,22.3669946 Z M92.2482607,30.7902472 L94.1495808,26.1495794 L96.0509009,30.7902472 L92.2482607,30.7902472 Z" id="Fill-23" fill="#FEFEFE"></path>
                        <path d="M128.501016,22.3669946 L125.598002,22.3669946 L119.464642,36.7803545 L122.674575,36.7803545 L123.982829,33.570422 L130.034893,33.570422 L131.343147,36.7803545 L134.634376,36.7803545 L128.501016,22.3669946 Z M125.107362,30.7902472 L127.008682,26.1495794 L128.910002,30.7902472 L125.107362,30.7902472 Z" id="Fill-24" fill="#FEFEFE"></path>
                    </g>
                </g>
            </g>
        </g>
    </g>
</svg>